<mxfile host="app.diagrams.net" modified="2023-06-08T06:30:24.995Z" agent="Mozilla/5.0 (Windows NT 10.0; Win64; x64) AppleWebKit/537.36 (KHTML, like Gecko) Chrome/114.0.0.0 Safari/537.36" etag="CE1LuKm8gmbsc4fxNNa2" version="21.3.7" type="github">
  <diagram name="第 1 页" id="iuhaI9ObnCfRAcPD-vhr">
    <mxGraphModel dx="1050" dy="517" grid="1" gridSize="10" guides="1" tooltips="1" connect="1" arrows="1" fold="1" page="1" pageScale="1" pageWidth="827" pageHeight="1169" math="0" shadow="0">
      <root>
        <mxCell id="0" />
        <mxCell id="1" parent="0" />
        <mxCell id="MI1LUx4qJ0LQopukVB38-1" style="edgeStyle=orthogonalEdgeStyle;rounded=0;orthogonalLoop=1;jettySize=auto;html=1;exitX=0.5;exitY=1;exitDx=0;exitDy=0;entryX=0.5;entryY=0;entryDx=0;entryDy=0;" edge="1" parent="1" source="MI1LUx4qJ0LQopukVB38-2" target="MI1LUx4qJ0LQopukVB38-7">
          <mxGeometry relative="1" as="geometry" />
        </mxCell>
        <mxCell id="MI1LUx4qJ0LQopukVB38-2" value="" style="ellipse;whiteSpace=wrap;html=1;aspect=fixed;fillColor=#dae8fc;strokeColor=#6c8ebf;" vertex="1" parent="1">
          <mxGeometry x="135" y="40" width="75" height="75" as="geometry" />
        </mxCell>
        <mxCell id="MI1LUx4qJ0LQopukVB38-3" style="edgeStyle=orthogonalEdgeStyle;rounded=0;orthogonalLoop=1;jettySize=auto;html=1;exitX=0.5;exitY=1;exitDx=0;exitDy=0;entryX=0.5;entryY=0;entryDx=0;entryDy=0;" edge="1" parent="1" source="MI1LUx4qJ0LQopukVB38-4" target="MI1LUx4qJ0LQopukVB38-28">
          <mxGeometry relative="1" as="geometry">
            <Array as="points">
              <mxPoint x="525" y="900" />
              <mxPoint x="60" y="900" />
              <mxPoint x="60" y="460" />
              <mxPoint x="173" y="460" />
            </Array>
          </mxGeometry>
        </mxCell>
        <mxCell id="MI1LUx4qJ0LQopukVB38-4" value="" style="rounded=0;whiteSpace=wrap;html=1;" vertex="1" parent="1">
          <mxGeometry x="300" y="480" width="450" height="400" as="geometry" />
        </mxCell>
        <mxCell id="MI1LUx4qJ0LQopukVB38-5" value="" style="shape=cylinder3;whiteSpace=wrap;html=1;boundedLbl=1;backgroundOutline=1;size=15;fillColor=#d5e8d4;strokeColor=#82b366;" vertex="1" parent="1">
          <mxGeometry x="560" y="200" width="180" height="245" as="geometry" />
        </mxCell>
        <mxCell id="MI1LUx4qJ0LQopukVB38-6" value="" style="rounded=0;whiteSpace=wrap;html=1;fillColor=#d5e8d4;strokeColor=#82b366;" vertex="1" parent="1">
          <mxGeometry x="300" y="150" width="200" height="270" as="geometry" />
        </mxCell>
        <mxCell id="MI1LUx4qJ0LQopukVB38-7" value="" style="rounded=0;whiteSpace=wrap;html=1;fillColor=#d5e8d4;strokeColor=#82b366;" vertex="1" parent="1">
          <mxGeometry x="75" y="150" width="200" height="270" as="geometry" />
        </mxCell>
        <mxCell id="MI1LUx4qJ0LQopukVB38-8" style="edgeStyle=orthogonalEdgeStyle;rounded=0;orthogonalLoop=1;jettySize=auto;html=1;exitX=0.5;exitY=1;exitDx=0;exitDy=0;entryX=0.5;entryY=0;entryDx=0;entryDy=0;" edge="1" parent="1" source="MI1LUx4qJ0LQopukVB38-9" target="MI1LUx4qJ0LQopukVB38-11">
          <mxGeometry relative="1" as="geometry" />
        </mxCell>
        <mxCell id="MI1LUx4qJ0LQopukVB38-9" value="main" style="rounded=0;whiteSpace=wrap;html=1;" vertex="1" parent="1">
          <mxGeometry x="110" y="170" width="130" height="30" as="geometry" />
        </mxCell>
        <mxCell id="MI1LUx4qJ0LQopukVB38-10" style="edgeStyle=orthogonalEdgeStyle;rounded=0;orthogonalLoop=1;jettySize=auto;html=1;exitX=0.5;exitY=1;exitDx=0;exitDy=0;" edge="1" parent="1" source="MI1LUx4qJ0LQopukVB38-11" target="MI1LUx4qJ0LQopukVB38-15">
          <mxGeometry relative="1" as="geometry" />
        </mxCell>
        <mxCell id="MI1LUx4qJ0LQopukVB38-11" value="&lt;div style=&quot;font-family: &amp;quot;JetBrains Mono&amp;quot;, &amp;quot;Fira Code&amp;quot;, Menlo, Monaco, &amp;quot;Courier New&amp;quot;, monospace, Consolas, &amp;quot;Courier New&amp;quot;, monospace; line-height: 22px;&quot;&gt;&lt;font style=&quot;font-size: 12px; background-color: rgb(255, 255, 255);&quot;&gt;init_capture_config&lt;/font&gt;&lt;/div&gt;" style="rounded=0;whiteSpace=wrap;html=1;" vertex="1" parent="1">
          <mxGeometry x="100" y="230" width="150" height="30" as="geometry" />
        </mxCell>
        <mxCell id="MI1LUx4qJ0LQopukVB38-12" style="edgeStyle=orthogonalEdgeStyle;rounded=0;orthogonalLoop=1;jettySize=auto;html=1;exitX=1;exitY=0.5;exitDx=0;exitDy=0;entryX=0;entryY=0.75;entryDx=0;entryDy=0;" edge="1" parent="1" source="MI1LUx4qJ0LQopukVB38-13" target="MI1LUx4qJ0LQopukVB38-17">
          <mxGeometry relative="1" as="geometry" />
        </mxCell>
        <mxCell id="MI1LUx4qJ0LQopukVB38-13" value="&lt;div style=&quot;font-family: &amp;quot;JetBrains Mono&amp;quot;, &amp;quot;Fira Code&amp;quot;, Menlo, Monaco, &amp;quot;Courier New&amp;quot;, monospace, Consolas, &amp;quot;Courier New&amp;quot;, monospace; line-height: 22px;&quot;&gt;&lt;div style=&quot;line-height: 22px;&quot;&gt;&lt;font style=&quot;font-size: 12px;&quot;&gt;pcap_loop&lt;/font&gt;&lt;/div&gt;&lt;/div&gt;" style="rounded=0;whiteSpace=wrap;html=1;" vertex="1" parent="1">
          <mxGeometry x="100" y="350" width="150" height="30" as="geometry" />
        </mxCell>
        <mxCell id="MI1LUx4qJ0LQopukVB38-14" style="edgeStyle=orthogonalEdgeStyle;rounded=0;orthogonalLoop=1;jettySize=auto;html=1;exitX=0.5;exitY=1;exitDx=0;exitDy=0;entryX=0.5;entryY=0;entryDx=0;entryDy=0;" edge="1" parent="1" source="MI1LUx4qJ0LQopukVB38-15" target="MI1LUx4qJ0LQopukVB38-13">
          <mxGeometry relative="1" as="geometry" />
        </mxCell>
        <mxCell id="MI1LUx4qJ0LQopukVB38-15" value="&lt;div style=&quot;font-family: &amp;quot;JetBrains Mono&amp;quot;, &amp;quot;Fira Code&amp;quot;, Menlo, Monaco, &amp;quot;Courier New&amp;quot;, monospace, Consolas, &amp;quot;Courier New&amp;quot;, monospace; line-height: 22px;&quot;&gt;&lt;div style=&quot;line-height: 22px;&quot;&gt;&lt;font style=&quot;font-size: 12px;&quot;&gt;pcap_setfilter&lt;/font&gt;&lt;/div&gt;&lt;/div&gt;" style="rounded=0;whiteSpace=wrap;html=1;" vertex="1" parent="1">
          <mxGeometry x="100" y="290" width="150" height="30" as="geometry" />
        </mxCell>
        <mxCell id="MI1LUx4qJ0LQopukVB38-16" style="edgeStyle=orthogonalEdgeStyle;rounded=0;orthogonalLoop=1;jettySize=auto;html=1;exitX=0.5;exitY=0;exitDx=0;exitDy=0;" edge="1" parent="1" source="MI1LUx4qJ0LQopukVB38-17" target="MI1LUx4qJ0LQopukVB38-19">
          <mxGeometry relative="1" as="geometry" />
        </mxCell>
        <mxCell id="MI1LUx4qJ0LQopukVB38-17" value="&lt;div style=&quot;font-family: &amp;quot;JetBrains Mono&amp;quot;, &amp;quot;Fira Code&amp;quot;, Menlo, Monaco, &amp;quot;Courier New&amp;quot;, monospace, Consolas, &amp;quot;Courier New&amp;quot;, monospace; line-height: 22px;&quot;&gt;&lt;font style=&quot;font-size: 12px;&quot;&gt;pcap_callback&lt;/font&gt;&lt;/div&gt;" style="rounded=0;whiteSpace=wrap;html=1;" vertex="1" parent="1">
          <mxGeometry x="340" y="380" width="120" height="30" as="geometry" />
        </mxCell>
        <mxCell id="MI1LUx4qJ0LQopukVB38-18" style="edgeStyle=orthogonalEdgeStyle;rounded=0;orthogonalLoop=1;jettySize=auto;html=1;exitX=0.5;exitY=0;exitDx=0;exitDy=0;" edge="1" parent="1" source="MI1LUx4qJ0LQopukVB38-19" target="MI1LUx4qJ0LQopukVB38-21">
          <mxGeometry relative="1" as="geometry" />
        </mxCell>
        <mxCell id="MI1LUx4qJ0LQopukVB38-19" value="&lt;div style=&quot;font-family: &amp;quot;JetBrains Mono&amp;quot;, &amp;quot;Fira Code&amp;quot;, Menlo, Monaco, &amp;quot;Courier New&amp;quot;, monospace, Consolas, &amp;quot;Courier New&amp;quot;, monospace; line-height: 22px;&quot;&gt;&lt;div style=&quot;line-height: 22px;&quot;&gt;&lt;div style=&quot;line-height: 22px;&quot;&gt;&lt;font style=&quot;font-size: 12px;&quot;&gt;process_packet&lt;/font&gt;&lt;/div&gt;&lt;/div&gt;&lt;/div&gt;" style="rounded=0;whiteSpace=wrap;html=1;" vertex="1" parent="1">
          <mxGeometry x="325" y="330" width="150" height="30" as="geometry" />
        </mxCell>
        <mxCell id="MI1LUx4qJ0LQopukVB38-20" style="edgeStyle=orthogonalEdgeStyle;rounded=0;orthogonalLoop=1;jettySize=auto;html=1;exitX=0.5;exitY=0;exitDx=0;exitDy=0;entryX=0.5;entryY=1;entryDx=0;entryDy=0;" edge="1" parent="1" source="MI1LUx4qJ0LQopukVB38-21" target="MI1LUx4qJ0LQopukVB38-23">
          <mxGeometry relative="1" as="geometry" />
        </mxCell>
        <mxCell id="MI1LUx4qJ0LQopukVB38-21" value="&lt;div style=&quot;font-family: &amp;quot;JetBrains Mono&amp;quot;, &amp;quot;Fira Code&amp;quot;, Menlo, Monaco, &amp;quot;Courier New&amp;quot;, monospace, Consolas, &amp;quot;Courier New&amp;quot;, monospace; line-height: 22px;&quot;&gt;&lt;div style=&quot;line-height: 22px;&quot;&gt;&lt;div style=&quot;line-height: 22px;&quot;&gt;&lt;div style=&quot;line-height: 22px;&quot;&gt;&lt;font style=&quot;font-size: 12px;&quot;&gt;process_ipv4&lt;/font&gt;&lt;/div&gt;&lt;/div&gt;&lt;/div&gt;&lt;/div&gt;" style="rounded=0;whiteSpace=wrap;html=1;" vertex="1" parent="1">
          <mxGeometry x="325" y="270" width="150" height="30" as="geometry" />
        </mxCell>
        <mxCell id="MI1LUx4qJ0LQopukVB38-22" style="edgeStyle=orthogonalEdgeStyle;rounded=0;orthogonalLoop=1;jettySize=auto;html=1;exitX=0.5;exitY=0;exitDx=0;exitDy=0;entryX=0.5;entryY=1;entryDx=0;entryDy=0;" edge="1" parent="1" source="MI1LUx4qJ0LQopukVB38-23" target="MI1LUx4qJ0LQopukVB38-24">
          <mxGeometry relative="1" as="geometry" />
        </mxCell>
        <mxCell id="MI1LUx4qJ0LQopukVB38-23" value="&lt;div style=&quot;font-family: &amp;quot;JetBrains Mono&amp;quot;, &amp;quot;Fira Code&amp;quot;, Menlo, Monaco, &amp;quot;Courier New&amp;quot;, monospace, Consolas, &amp;quot;Courier New&amp;quot;, monospace; line-height: 22px;&quot;&gt;&lt;div style=&quot;line-height: 22px;&quot;&gt;&lt;div style=&quot;line-height: 22px;&quot;&gt;&lt;div style=&quot;line-height: 22px;&quot;&gt;&lt;div style=&quot;line-height: 19px;&quot;&gt;&lt;font style=&quot;font-size: 12px;&quot;&gt;process_tcp&lt;/font&gt;&lt;/div&gt;&lt;/div&gt;&lt;/div&gt;&lt;/div&gt;&lt;/div&gt;" style="rounded=0;whiteSpace=wrap;html=1;" vertex="1" parent="1">
          <mxGeometry x="325" y="220" width="150" height="30" as="geometry" />
        </mxCell>
        <mxCell id="MI1LUx4qJ0LQopukVB38-24" value="&lt;div style=&quot;font-family: &amp;quot;JetBrains Mono&amp;quot;, &amp;quot;Fira Code&amp;quot;, Menlo, Monaco, &amp;quot;Courier New&amp;quot;, monospace, Consolas, &amp;quot;Courier New&amp;quot;, monospace; line-height: 22px;&quot;&gt;&lt;div style=&quot;line-height: 22px;&quot;&gt;&lt;div style=&quot;line-height: 22px;&quot;&gt;&lt;div style=&quot;line-height: 22px;&quot;&gt;&lt;div style=&quot;line-height: 19px;&quot;&gt;&lt;div style=&quot;line-height: 19px;&quot;&gt;&lt;font style=&quot;font-size: 12px;&quot;&gt;parse&lt;/font&gt;&lt;/div&gt;&lt;/div&gt;&lt;/div&gt;&lt;/div&gt;&lt;/div&gt;&lt;/div&gt;" style="rounded=0;whiteSpace=wrap;html=1;" vertex="1" parent="1">
          <mxGeometry x="325" y="170" width="150" height="30" as="geometry" />
        </mxCell>
        <mxCell id="MI1LUx4qJ0LQopukVB38-25" value="&lt;div style=&quot;font-family: &amp;quot;JetBrains Mono&amp;quot;, &amp;quot;Fira Code&amp;quot;, Menlo, Monaco, &amp;quot;Courier New&amp;quot;, monospace, Consolas, &amp;quot;Courier New&amp;quot;, monospace; line-height: 19px;&quot;&gt;&lt;font style=&quot;font-size: 12px;&quot;&gt;custom_parser&lt;/font&gt;&lt;/div&gt;" style="rounded=0;whiteSpace=wrap;html=1;" vertex="1" parent="1">
          <mxGeometry x="600" y="310" width="100" height="40" as="geometry" />
        </mxCell>
        <mxCell id="MI1LUx4qJ0LQopukVB38-26" value="&lt;div style=&quot;font-family: &amp;quot;JetBrains Mono&amp;quot;, &amp;quot;Fira Code&amp;quot;, Menlo, Monaco, &amp;quot;Courier New&amp;quot;, monospace, Consolas, &amp;quot;Courier New&amp;quot;, monospace; font-size: 14.4px; line-height: 19px;&quot;&gt;packet_info&lt;/div&gt;" style="rounded=0;whiteSpace=wrap;html=1;" vertex="1" parent="1">
          <mxGeometry x="600" y="250" width="100" height="40" as="geometry" />
        </mxCell>
        <mxCell id="MI1LUx4qJ0LQopukVB38-27" value="&lt;div style=&quot;font-family: &amp;quot;JetBrains Mono&amp;quot;, &amp;quot;Fira Code&amp;quot;, Menlo, Monaco, &amp;quot;Courier New&amp;quot;, monospace, Consolas, &amp;quot;Courier New&amp;quot;, monospace; line-height: 19px;&quot;&gt;&lt;div style=&quot;&quot;&gt;&lt;font color=&quot;#ff3333&quot; style=&quot;font-size: 12px;&quot;&gt;&lt;b&gt;http_parser_execute（很多状态信息）&lt;/b&gt;&lt;/font&gt;&lt;/div&gt;&lt;/div&gt;" style="text;whiteSpace=wrap;html=1;" vertex="1" parent="1">
          <mxGeometry x="430" y="480" width="260" height="40" as="geometry" />
        </mxCell>
        <mxCell id="MI1LUx4qJ0LQopukVB38-28" value="" style="rounded=0;whiteSpace=wrap;html=1;fillColor=#d5e8d4;strokeColor=#82b366;" vertex="1" parent="1">
          <mxGeometry x="75" y="510" width="195" height="250" as="geometry" />
        </mxCell>
        <mxCell id="MI1LUx4qJ0LQopukVB38-29" style="edgeStyle=orthogonalEdgeStyle;rounded=0;orthogonalLoop=1;jettySize=auto;html=1;exitX=0.5;exitY=1;exitDx=0;exitDy=0;entryX=0.5;entryY=0;entryDx=0;entryDy=0;" edge="1" parent="1" source="MI1LUx4qJ0LQopukVB38-30" target="MI1LUx4qJ0LQopukVB38-32">
          <mxGeometry relative="1" as="geometry" />
        </mxCell>
        <mxCell id="MI1LUx4qJ0LQopukVB38-30" value="&lt;div style=&quot;font-family: &amp;quot;JetBrains Mono&amp;quot;, &amp;quot;Fira Code&amp;quot;, Menlo, Monaco, &amp;quot;Courier New&amp;quot;, monospace, Consolas, &amp;quot;Courier New&amp;quot;, monospace; line-height: 22px;&quot;&gt;&lt;font style=&quot;font-size: 12px;&quot;&gt;save_http_request&lt;/font&gt;&lt;/div&gt;" style="rounded=0;whiteSpace=wrap;html=1;" vertex="1" parent="1">
          <mxGeometry x="90" y="530" width="160" height="40" as="geometry" />
        </mxCell>
        <mxCell id="MI1LUx4qJ0LQopukVB38-31" style="edgeStyle=orthogonalEdgeStyle;rounded=0;orthogonalLoop=1;jettySize=auto;html=1;exitX=0.5;exitY=1;exitDx=0;exitDy=0;entryX=0.544;entryY=-0.121;entryDx=0;entryDy=0;entryPerimeter=0;" edge="1" parent="1" source="MI1LUx4qJ0LQopukVB38-32" target="MI1LUx4qJ0LQopukVB38-33">
          <mxGeometry relative="1" as="geometry" />
        </mxCell>
        <mxCell id="MI1LUx4qJ0LQopukVB38-32" value="&lt;div style=&quot;font-family: &amp;quot;JetBrains Mono&amp;quot;, &amp;quot;Fira Code&amp;quot;, Menlo, Monaco, &amp;quot;Courier New&amp;quot;, monospace, Consolas, &amp;quot;Courier New&amp;quot;, monospace; line-height: 22px;&quot;&gt;&lt;font style=&quot;font-size: 12px;&quot;&gt;get_resonable_filename&lt;/font&gt;&lt;/div&gt;" style="rounded=0;whiteSpace=wrap;html=1;" vertex="1" parent="1">
          <mxGeometry x="90" y="600" width="170" height="40" as="geometry" />
        </mxCell>
        <mxCell id="MI1LUx4qJ0LQopukVB38-33" value="解析信息输出到文件" style="rounded=0;whiteSpace=wrap;html=1;" vertex="1" parent="1">
          <mxGeometry x="90" y="680" width="160" height="40" as="geometry" />
        </mxCell>
        <mxCell id="MI1LUx4qJ0LQopukVB38-34" value="parser" style="text;html=1;strokeColor=none;fillColor=none;align=center;verticalAlign=middle;whiteSpace=wrap;rounded=0;" vertex="1" parent="1">
          <mxGeometry x="300" y="450" width="60" height="30" as="geometry" />
        </mxCell>
        <mxCell id="MI1LUx4qJ0LQopukVB38-35" value="" style="rounded=0;whiteSpace=wrap;html=1;" vertex="1" parent="1">
          <mxGeometry x="430" y="510" width="290" height="350" as="geometry" />
        </mxCell>
        <mxCell id="MI1LUx4qJ0LQopukVB38-36" value="request" style="text;html=1;strokeColor=none;fillColor=none;align=center;verticalAlign=middle;whiteSpace=wrap;rounded=0;" vertex="1" parent="1">
          <mxGeometry x="440" y="570" width="60" height="30" as="geometry" />
        </mxCell>
        <mxCell id="MI1LUx4qJ0LQopukVB38-37" value="request请求解析&lt;br&gt;使用状态转移！" style="rounded=0;whiteSpace=wrap;html=1;fillColor=#d5e8d4;strokeColor=#82b366;" vertex="1" parent="1">
          <mxGeometry x="440" y="600" width="120" height="240" as="geometry" />
        </mxCell>
        <mxCell id="MI1LUx4qJ0LQopukVB38-38" value="response请求解析" style="rounded=0;whiteSpace=wrap;html=1;fillColor=#d5e8d4;strokeColor=#82b366;" vertex="1" parent="1">
          <mxGeometry x="587.5" y="600" width="122.5" height="240" as="geometry" />
        </mxCell>
        <mxCell id="MI1LUx4qJ0LQopukVB38-39" value="response" style="text;html=1;strokeColor=none;fillColor=none;align=center;verticalAlign=middle;whiteSpace=wrap;rounded=0;" vertex="1" parent="1">
          <mxGeometry x="590" y="570" width="60" height="30" as="geometry" />
        </mxCell>
        <mxCell id="MI1LUx4qJ0LQopukVB38-40" value="" style="rounded=0;whiteSpace=wrap;html=1;" vertex="1" parent="1">
          <mxGeometry x="310" y="510" width="100" height="350" as="geometry" />
        </mxCell>
        <mxCell id="MI1LUx4qJ0LQopukVB38-41" value="new Custom_parser" style="rounded=0;whiteSpace=wrap;html=1;" vertex="1" parent="1">
          <mxGeometry x="315" y="535" width="90" height="60" as="geometry" />
        </mxCell>
        <mxCell id="MI1LUx4qJ0LQopukVB38-42" value="&lt;div style=&quot;font-family: &amp;quot;JetBrains Mono&amp;quot;, &amp;quot;Fira Code&amp;quot;, Menlo, Monaco, &amp;quot;Courier New&amp;quot;, monospace, Consolas, &amp;quot;Courier New&amp;quot;, monospace; line-height: 22px;&quot;&gt;&lt;font style=&quot;font-size: 12px;&quot;&gt;http_setting_init&lt;/font&gt;&lt;/div&gt;" style="rounded=0;whiteSpace=wrap;html=1;" vertex="1" parent="1">
          <mxGeometry x="315" y="710" width="90" height="60" as="geometry" />
        </mxCell>
        <mxCell id="MI1LUx4qJ0LQopukVB38-43" value="&lt;div style=&quot;font-family: &amp;quot;JetBrains Mono&amp;quot;, &amp;quot;Fira Code&amp;quot;, Menlo, Monaco, &amp;quot;Courier New&amp;quot;, monospace, Consolas, &amp;quot;Courier New&amp;quot;, monospace; line-height: 22px;&quot;&gt;&lt;font style=&quot;font-size: 12px;&quot;&gt;http_parser_init&lt;/font&gt;&lt;/div&gt;" style="rounded=0;whiteSpace=wrap;html=1;" vertex="1" parent="1">
          <mxGeometry x="315" y="620" width="90" height="60" as="geometry" />
        </mxCell>
        <mxCell id="MI1LUx4qJ0LQopukVB38-44" value="..." style="rounded=0;whiteSpace=wrap;html=1;" vertex="1" parent="1">
          <mxGeometry x="317.5" y="780" width="87.5" height="60" as="geometry" />
        </mxCell>
        <mxCell id="MI1LUx4qJ0LQopukVB38-45" value="相关init函数" style="text;html=1;strokeColor=none;fillColor=none;align=center;verticalAlign=middle;whiteSpace=wrap;rounded=0;" vertex="1" parent="1">
          <mxGeometry x="310" y="480" width="70" height="30" as="geometry" />
        </mxCell>
        <mxCell id="MI1LUx4qJ0LQopukVB38-46" value="" style="endArrow=classic;startArrow=classic;html=1;rounded=0;" edge="1" parent="1" source="MI1LUx4qJ0LQopukVB38-4" target="MI1LUx4qJ0LQopukVB38-5">
          <mxGeometry width="50" height="50" relative="1" as="geometry">
            <mxPoint x="600" y="490" as="sourcePoint" />
            <mxPoint x="650" y="440" as="targetPoint" />
          </mxGeometry>
        </mxCell>
        <mxCell id="MI1LUx4qJ0LQopukVB38-47" value="" style="curved=1;endArrow=classic;html=1;rounded=0;" edge="1" parent="1" source="MI1LUx4qJ0LQopukVB38-24" target="MI1LUx4qJ0LQopukVB38-4">
          <mxGeometry width="50" height="50" relative="1" as="geometry">
            <mxPoint x="540" y="140" as="sourcePoint" />
            <mxPoint x="590" y="90" as="targetPoint" />
            <Array as="points">
              <mxPoint x="480" y="90" />
              <mxPoint x="540" y="90" />
            </Array>
          </mxGeometry>
        </mxCell>
        <mxCell id="MI1LUx4qJ0LQopukVB38-48" value="程序起始" style="text;html=1;strokeColor=none;fillColor=none;align=center;verticalAlign=middle;whiteSpace=wrap;rounded=0;" vertex="1" parent="1">
          <mxGeometry x="145" y="60" width="60" height="30" as="geometry" />
        </mxCell>
        <mxCell id="MI1LUx4qJ0LQopukVB38-49" value="配置过滤规则/解析参数" style="text;html=1;strokeColor=none;fillColor=none;align=center;verticalAlign=middle;whiteSpace=wrap;rounded=0;" vertex="1" parent="1">
          <mxGeometry x="50" y="230" width="60" height="30" as="geometry" />
        </mxCell>
        <mxCell id="MI1LUx4qJ0LQopukVB38-50" value="设置过滤规则" style="text;html=1;strokeColor=none;fillColor=none;align=center;verticalAlign=middle;whiteSpace=wrap;rounded=0;" vertex="1" parent="1">
          <mxGeometry x="40" y="290" width="60" height="30" as="geometry" />
        </mxCell>
        <mxCell id="MI1LUx4qJ0LQopukVB38-51" value="死循环，一直抓包" style="text;html=1;strokeColor=none;fillColor=none;align=center;verticalAlign=middle;whiteSpace=wrap;rounded=0;" vertex="1" parent="1">
          <mxGeometry x="40" y="350" width="60" height="30" as="geometry" />
        </mxCell>
        <mxCell id="MI1LUx4qJ0LQopukVB38-52" value="抓到一个新包调用" style="text;html=1;strokeColor=none;fillColor=none;align=center;verticalAlign=middle;whiteSpace=wrap;rounded=0;" vertex="1" parent="1">
          <mxGeometry x="240" y="380" width="60" height="30" as="geometry" />
        </mxCell>
        <mxCell id="MI1LUx4qJ0LQopukVB38-53" value="剥离链路层头" style="text;html=1;strokeColor=none;fillColor=none;align=center;verticalAlign=middle;whiteSpace=wrap;rounded=0;" vertex="1" parent="1">
          <mxGeometry x="280" y="320" width="60" height="30" as="geometry" />
        </mxCell>
        <mxCell id="MI1LUx4qJ0LQopukVB38-54" value="解析ipv4" style="text;html=1;strokeColor=none;fillColor=none;align=center;verticalAlign=middle;whiteSpace=wrap;rounded=0;" vertex="1" parent="1">
          <mxGeometry x="280" y="255" width="60" height="30" as="geometry" />
        </mxCell>
        <mxCell id="MI1LUx4qJ0LQopukVB38-55" value="解析TCP" style="text;html=1;strokeColor=none;fillColor=none;align=center;verticalAlign=middle;whiteSpace=wrap;rounded=0;" vertex="1" parent="1">
          <mxGeometry x="280" y="200" width="60" height="30" as="geometry" />
        </mxCell>
        <mxCell id="MI1LUx4qJ0LQopukVB38-56" value="1.首先要确定这个是否是合法的http，这是通过设置&lt;b&gt;http状态（不是状态码）&lt;/b&gt;并且根据消耗的数据字节一步步转移状态来解析（http_parser.c）&lt;br&gt;2.其次，当http解析到某些状态，会触发对应的钩子函数，来保存和设置全局信息" style="text;html=1;strokeColor=none;fillColor=none;align=center;verticalAlign=middle;whiteSpace=wrap;rounded=0;" vertex="1" parent="1">
          <mxGeometry x="465" y="40" width="245" height="100" as="geometry" />
        </mxCell>
        <mxCell id="MI1LUx4qJ0LQopukVB38-57" value="&lt;font style=&quot;font-size: 15px;&quot;&gt;&lt;b&gt;解析http数据报！&lt;/b&gt;&lt;/font&gt;" style="text;html=1;strokeColor=none;fillColor=none;align=center;verticalAlign=middle;whiteSpace=wrap;rounded=0;" vertex="1" parent="1">
          <mxGeometry x="340" y="100" width="140" height="30" as="geometry" />
        </mxCell>
        <mxCell id="MI1LUx4qJ0LQopukVB38-58" value="不断消耗数据报字节，同时不断转移状态，设置全局信息。" style="text;html=1;strokeColor=none;fillColor=none;align=center;verticalAlign=middle;whiteSpace=wrap;rounded=0;" vertex="1" parent="1">
          <mxGeometry x="445" y="515" width="240" height="55" as="geometry" />
        </mxCell>
        <mxCell id="MI1LUx4qJ0LQopukVB38-59" value="当一个response完成时，就获取到了完整的一次request和response信息，所有解析到的信息都保存在custom_parser结构体中" style="text;html=1;strokeColor=none;fillColor=none;align=center;verticalAlign=middle;whiteSpace=wrap;rounded=0;" vertex="1" parent="1">
          <mxGeometry x="75" y="870" width="190" height="30" as="geometry" />
        </mxCell>
        <mxCell id="MI1LUx4qJ0LQopukVB38-60" value="至此，网页解析完毕" style="text;html=1;strokeColor=none;fillColor=none;align=center;verticalAlign=middle;whiteSpace=wrap;rounded=0;" vertex="1" parent="1">
          <mxGeometry x="100" y="720" width="110" height="30" as="geometry" />
        </mxCell>
        <mxCell id="MI1LUx4qJ0LQopukVB38-61" value="1" style="ellipse;whiteSpace=wrap;html=1;aspect=fixed;fillColor=#f8cecc;strokeColor=#b85450;" vertex="1" parent="1">
          <mxGeometry x="55" y="120" width="50" height="50" as="geometry" />
        </mxCell>
        <mxCell id="MI1LUx4qJ0LQopukVB38-62" value="2" style="ellipse;whiteSpace=wrap;html=1;aspect=fixed;fillColor=#f8cecc;strokeColor=#b85450;" vertex="1" parent="1">
          <mxGeometry x="290" y="120" width="50" height="50" as="geometry" />
        </mxCell>
        <mxCell id="MI1LUx4qJ0LQopukVB38-63" value="3" style="ellipse;whiteSpace=wrap;html=1;aspect=fixed;fillColor=#f8cecc;strokeColor=#b85450;" vertex="1" parent="1">
          <mxGeometry x="500" y="580" width="50" height="50" as="geometry" />
        </mxCell>
        <mxCell id="MI1LUx4qJ0LQopukVB38-64" value="4" style="ellipse;whiteSpace=wrap;html=1;aspect=fixed;fillColor=#f8cecc;strokeColor=#b85450;" vertex="1" parent="1">
          <mxGeometry x="660" y="580" width="50" height="50" as="geometry" />
        </mxCell>
        <mxCell id="MI1LUx4qJ0LQopukVB38-65" value="5" style="ellipse;whiteSpace=wrap;html=1;aspect=fixed;fillColor=#f8cecc;strokeColor=#b85450;" vertex="1" parent="1">
          <mxGeometry x="210" y="475" width="50" height="50" as="geometry" />
        </mxCell>
      </root>
    </mxGraphModel>
  </diagram>
</mxfile>
